<svg xmlns="http://www.w3.org/2000/svg" width="1920" height="1080" viewBox="0 0 1920 1080" role="img" aria-label="VS Code Theme Visualizer template preview">
  <rect width="1920" height="1080" fill="#0d1117"/>
  <g font-family="Inter, -apple-system, BlinkMacSystemFont, Segoe UI, sans-serif">
    <rect x="110" y="88" width="1700" height="904" rx="18" fill="#1f1f1f" stroke="#3a3a3a"/>
    <rect x="110" y="88" width="1700" height="44" rx="18" fill="#181818"/>
    <circle cx="139" cy="110" r="8" fill="#f87171"/>
    <circle cx="165" cy="110" r="8" fill="#fbbf24"/>
    <circle cx="191" cy="110" r="8" fill="#34d399"/>
    <rect x="110" y="132" width="68" height="810" fill="#333333"/>
    <rect x="178" y="132" width="286" height="810" fill="#252526"/>
    <rect x="464" y="132" width="1346" height="56" fill="#2d2d2d"/>
    <rect x="464" y="188" width="1346" height="634" fill="#1e1e1e"/>
    <rect x="464" y="822" width="1346" height="120" fill="#181818"/>
    <rect x="110" y="942" width="1700" height="50" rx="0" fill="#007acc"/>
    <g fill="#858585">
      <rect x="135" y="168" width="18" height="18" rx="3"/>
      <rect x="135" y="225" width="18" height="18" rx="3"/>
      <rect x="135" y="282" width="18" height="18" rx="3"/>
      <rect x="135" y="339" width="18" height="18" rx="3"/>
    </g>
    <text x="214" y="182" fill="#cccccc" font-size="22" font-weight="600">EXPLORER</text>
    <g fill="#9cdcfe" font-family="Menlo, Monaco, Consolas, monospace" font-size="24">
      <text x="214" y="244">src</text>
      <text x="236" y="292">App.tsx</text>
      <text x="236" y="340">theme.ts</text>
      <text x="236" y="388">terminal.ts</text>
    </g>
    <rect x="488" y="146" width="210" height="42" fill="#1e1e1e"/>
    <text x="514" y="174" fill="#ffffff" font-size="20">App.tsx</text>
    <g font-family="Menlo, Monaco, Consolas, monospace" font-size="29">
      <text x="522" y="270" fill="#569cd6">const</text>
      <text x="620" y="270" fill="#4fc1ff">theme</text>
      <text x="730" y="270" fill="#d4d4d4">=</text>
      <text x="770" y="270" fill="#ce9178">"Dark Modern"</text>
      <text x="522" y="328" fill="#c586c0">function</text>
      <text x="670" y="328" fill="#dcdcaa">renderWorkbench</text>
      <text x="965" y="328" fill="#d4d4d4">()</text>
      <text x="522" y="386" fill="#d4d4d4">{</text>
      <text x="574" y="444" fill="#9cdcfe">typewriter</text>
      <text x="755" y="444" fill="#d4d4d4">.</text>
      <text x="775" y="444" fill="#dcdcaa">play</text>
      <text x="856" y="444" fill="#d4d4d4">()</text>
      <rect x="910" y="416" width="18" height="38" fill="#aeafad"/>
    </g>
    <text x="510" y="872" fill="#cccccc" font-size="22" font-family="Menlo, Monaco, Consolas, monospace">$ npm run preview</text>
    <text x="1340" y="973" fill="#ffffff" font-size="20">VS Code Theme Visualizer</text>
  </g>
</svg>
